<?xml version="1.0" encoding="iso-8859-1"?>
<!-- Generator: Adobe Illustrator 19.0.0, SVG Export Plug-In . SVG Version: 6.00 Build 0)  -->
<svg version="1.1" id="Capa_1" xmlns="http://www.w3.org/2000/svg" xmlns:xlink="http://www.w3.org/1999/xlink" x="0px" y="0px"
	 viewBox="0 0 463 463" width="80" height="80" style="enable-background:new 0 0 463 463;" xml:space="preserve">
<path d="M454.932,293.904c-1.406-57.604-24.501-111.55-65.394-152.442C347.325,99.248,291.199,76,231.5,76
	S115.675,99.248,73.461,141.462C32.57,182.354,9.474,236.3,8.068,293.904C3.265,296.54,0,301.645,0,307.5v64
	c0,8.547,6.953,15.5,15.5,15.5h432c8.547,0,15.5-6.953,15.5-15.5v-64C463,301.645,459.736,296.54,454.932,293.904z M359,332v-25h65
	v25H359z M15,332v-24.5c0-0.276,0.224-0.5,0.5-0.5H24v25H15z M36.127,226.692l30.502,12.635C60.572,255.87,56.95,273.573,56.171,292
	H23.149C23.963,269.108,28.48,247.145,36.127,226.692z M78.939,157.546l23.337,23.337c-12.104,13.175-22.219,28.201-29.878,44.597
	l-30.515-12.64C51.249,192.429,63.818,173.786,78.939,157.546z M144.84,109.884l12.639,30.515
	c-16.396,7.659-31.422,17.774-44.597,29.878l-23.337-23.337C105.786,131.818,124.429,119.249,144.84,109.884z M373.455,146.939
	l-23.337,23.337c-13.176-12.104-28.201-22.219-44.597-29.878l12.64-30.515C338.571,119.249,357.214,131.818,373.455,146.939z
	 M421.117,212.84l-30.515,12.64c-7.659-16.396-17.774-31.422-29.878-44.597l23.337-23.337
	C399.183,173.786,411.751,192.429,421.117,212.84z M439.851,292H406.83c-0.779-18.427-4.401-36.131-10.458-52.674l30.502-12.635
	C434.521,247.144,439.037,269.108,439.851,292z M279,332v-25h65v25H279z M199,332v-25h65v25H199z M119,332v-25h65v25H119z
	 M270.542,292c-2.195-17.495-11.932-26.852-19.947-34.545c-5.436-5.218-10.13-9.725-11.871-15.969
	c-0.735-2.636-2.847-4.663-5.511-5.288c-2.663-0.623-5.457,0.25-7.288,2.285c-0.974,1.082-22.11,24.898-25.464,53.517h-41.245
	c2.297-40.897,23.356-58.51,42.068-74.141c11.881-9.924,23.249-19.419,27.72-33.275c8.426,7.782,14.557,18.681,18.538,27.482
	c5.989,13.242,8.606,24.929,8.631,25.039c0.621,2.834,2.821,5.056,5.649,5.705c2.827,0.648,5.776-0.392,7.57-2.671
	c0.405-0.514,7.574-9.701,12.889-21.656c10.349,13.642,27.157,40.528,29.448,73.517H270.542z M255.372,292h-39.775
	c2.051-13.695,9.151-26.376,14.641-34.465c2.966,4.018,6.5,7.41,9.97,10.741C247.229,275.016,253.443,281.011,255.372,292z
	 M326.77,292c-3.245-53.825-40.277-92.086-41.923-93.759c-1.925-1.958-4.767-2.705-7.406-1.953c-2.64,0.754-4.657,2.89-5.258,5.569
	c-1.245,5.543-3.671,11.092-6.192,15.829c-6.006-16.751-18.095-41.897-39.016-52.833c-2.326-1.215-5.117-1.127-7.359,0.232
	c-2.244,1.359-3.615,3.792-3.615,6.415c0,14.523-10.206,23.048-24.332,34.848C171.458,223.23,146.562,244.063,144.2,292H71.181
	c3.931-85.031,74.334-153,160.319-153c85.986,0,156.388,67.969,160.32,153H326.77z M291.674,134.629
	c-16.543-6.057-34.247-9.679-52.674-10.458V91.15c22.892,0.814,44.856,5.33,65.308,12.977L291.674,134.629z M224,124.171
	c-18.427,0.779-36.131,4.401-52.674,10.458l-12.634-30.502C179.145,96.48,201.108,91.963,224,91.15V124.171z M39,307h65v25H39V307z
	 M144,347v25H79v-25H144z M159,347h65v25h-65V347z M239,347h65v25h-65V347z M319,347h65v25h-65V347z M439,307h8.5
	c0.276,0,0.5,0.224,0.5,0.5V332h-9V307z M15,371.5V347h49v25H15.5C15.224,372,15,371.776,15,371.5z M447.5,372H399v-25h49v24.5
	C448,371.776,447.776,372,447.5,372z"/>
<g>
</g>
<g>
</g>
<g>
</g>
<g>
</g>
<g>
</g>
<g>
</g>
<g>
</g>
<g>
</g>
<g>
</g>
<g>
</g>
<g>
</g>
<g>
</g>
<g>
</g>
<g>
</g>
<g>
</g>
</svg>
