<?xml version="1.0" encoding="iso-8859-1"?>
<!-- Generator: Adobe Illustrator 19.0.0, SVG Export Plug-In . SVG Version: 6.00 Build 0)  -->
<svg version="1.1" id="Layer_1" xmlns="http://www.w3.org/2000/svg" xmlns:xlink="http://www.w3.org/1999/xlink" x="0px" y="0px"
	 viewBox="0 0 512 512" width="80" height="80" style="enable-background:new 0 0 512 512;" xml:space="preserve">
<g>
	<g>
		<path d="M490.656,352.004h-224v-172.5C279.094,175.113,288,163.262,288,149.332c0-17.672-14.328-32-32-32s-32,14.328-32,32
			c0,13.93,8.906,25.781,21.328,30.172v172.5h-224C9.547,352.004,0,361.551,0,373.332v106.672c0,11.781,9.547,21.328,21.328,21.328
			h469.328c11.781,0,21.344-9.547,21.344-21.328V373.332C512,361.551,502.438,352.004,490.656,352.004z M256,138.668
			c5.875,0,10.656,4.781,10.656,10.664s-4.781,10.664-10.656,10.664c-5.891,0-10.672-4.781-10.672-10.664
			S250.109,138.668,256,138.668z M490.656,480.004H21.328V373.332h469.328V480.004z"/>
	</g>
</g>
<g>
	<g>
		<path d="M309.328,416.004c-5.891,0-10.672,4.781-10.672,10.656c0,5.906,4.782,10.672,10.672,10.672
			c5.891,0,10.672-4.766,10.672-10.672C320,420.785,315.219,416.004,309.328,416.004z"/>
	</g>
</g>
<g>
	<g>
		<path d="M245.328,416.004c-5.891,0-10.672,4.781-10.672,10.656c0,5.906,4.782,10.672,10.672,10.672
			c5.891,0,10.672-4.766,10.672-10.672C256,420.785,251.219,416.004,245.328,416.004z"/>
	</g>
</g>
<g>
	<g>
		<path d="M373.328,416.004c-5.891,0-10.672,4.781-10.672,10.656c0,5.906,4.782,10.672,10.672,10.672
			c5.891,0,10.672-4.766,10.672-10.672C384,420.785,379.219,416.004,373.328,416.004z"/>
	</g>
</g>
<g>
	<g>
		<path d="M437.328,416.004c-5.891,0-10.672,4.781-10.672,10.656c0,5.906,4.782,10.672,10.672,10.672
			c5.891,0,10.672-4.766,10.672-10.672C448,420.785,443.219,416.004,437.328,416.004z"/>
	</g>
</g>
<g>
	<g>
		<path d="M96,394.66c-17.672,0-32,14.344-32,32c0,17.688,14.328,32,32,32s32-14.312,32-32C128,409.004,113.672,394.66,96,394.66z
			 M96,437.332c-5.891,0-10.672-4.781-10.672-10.672c0-5.875,4.781-10.656,10.672-10.656c5.875,0,10.656,4.781,10.656,10.656
			C106.656,432.551,101.875,437.332,96,437.332z"/>
	</g>
</g>
<g>
	<g>
		<path d="M337.484,98.566c-1.891-2.984-5.219-4.961-9.016-4.961c-5.891,0-10.656,4.773-10.656,10.664
			c0,2.258,0.703,4.352,1.891,6.07c7.141,11.617,10.953,25.016,10.953,38.992c0,13.984-3.812,27.375-10.953,38.992
			c-1.187,1.728-1.891,3.814-1.891,6.072c0,5.891,4.766,10.664,10.656,10.664c3.797,0,7.125-1.977,9.016-4.961
			C346.688,185.371,352,167.973,352,149.332C352,130.691,346.688,113.293,337.484,98.566z"/>
	</g>
</g>
<g>
	<g>
		<path d="M387.453,58.113l-0.016,0.008c-1.875-3.008-5.219-5.016-9.031-5.016c-5.891,0-10.672,4.773-10.672,10.664
			c0,2.25,0.703,4.328,1.891,6.047c5.594,7.969,10.328,16.508,14.156,25.547c7.219,17.086,10.875,35.242,10.875,53.969
			c0,18.727-3.656,36.891-10.875,53.969c-3.828,9.047-8.562,17.586-14.156,25.547c-1.188,1.719-1.891,3.805-1.891,6.047
			c0,5.891,4.781,10.664,10.672,10.664c3.812,0,7.156-2,9.031-5.016l0.016,0.008C405.438,214.676,416,183.238,416,149.332
			S405.438,83.988,387.453,58.113z"/>
	</g>
</g>
<g>
	<g>
		<path d="M435.453,15.246l-0.016,0.016c-1.938-2.773-5.141-4.594-8.781-4.594c-5.891,0-10.656,4.773-10.656,10.664
			c0,2.477,0.844,4.758,2.25,6.562c0.047,0.055,0.094,0.102,0.141,0.157c9.781,13.07,17.938,27.25,24.359,42.398
			c10.562,24.977,15.906,51.516,15.906,78.883s-5.344,53.906-15.906,78.883c-6.422,15.156-14.578,29.336-24.359,42.398
			c-0.047,0.055-0.094,0.102-0.141,0.156c-1.406,1.812-2.25,4.086-2.25,6.562c0,5.891,4.766,10.672,10.656,10.672
			c3.641,0,6.844-1.828,8.781-4.594h0.016C463.422,246.035,480,199.621,480,149.332C480,99.051,463.422,52.637,435.453,15.246z"/>
	</g>
</g>
<g>
	<g>
		<path d="M181.329,149.333c0-13.977,3.812-27.375,10.953-38.992c1.203-1.719,1.906-3.812,1.906-6.07
			c0-5.891-4.781-10.664-10.672-10.664c-3.781,0-7.109,1.977-9.016,4.961c-9.188,14.727-14.5,32.125-14.5,50.766
			s5.312,36.039,14.5,50.766c1.906,2.982,5.234,4.959,9.016,4.959c5.891,0,10.672-4.773,10.672-10.664
			c0-2.258-0.703-4.344-1.906-6.07C185.141,176.708,181.329,163.317,181.329,149.333z"/>
	</g>
</g>
<g>
	<g>
		<path d="M128.219,203.301c-7.219-17.078-10.891-35.242-10.891-53.969c0-18.727,3.672-36.883,10.891-53.969
			c3.828-9.039,8.562-17.578,14.156-25.547c1.172-1.719,1.875-3.797,1.875-6.047c0-5.891-4.781-10.664-10.672-10.664
			c-3.812,0-7.141,2.008-9.031,5.016v-0.008C106.547,83.988,96,115.426,96,149.332c0,33.906,10.547,65.344,28.547,91.219v-0.008
			c1.891,3.016,5.219,5.016,9.031,5.016c5.891,0,10.672-4.773,10.672-10.664c0-2.242-0.703-4.328-1.875-6.047
			C136.781,220.887,132.047,212.348,128.219,203.301z"/>
	</g>
</g>
<g>
	<g>
		<path d="M93.609,270.614c-9.797-13.062-17.953-27.242-24.359-42.398c-10.562-24.977-15.922-51.516-15.922-78.883
			S58.687,95.427,69.25,70.45c6.406-15.148,14.562-29.328,24.359-42.398c0.031-0.055,0.094-0.102,0.125-0.156
			C95.156,26.09,96,23.809,96,21.332c0-5.891-4.781-10.664-10.672-10.664c-3.641,0-6.844,1.82-8.766,4.594l-0.016-0.016
			C48.562,52.637,32,99.051,32,149.332c0,50.289,16.562,96.703,44.547,134.078h0.015c1.922,2.766,5.125,4.594,8.766,4.594
			c5.891,0,10.672-4.781,10.672-10.672c0-2.477-0.844-4.75-2.266-6.562C93.703,270.715,93.64,270.668,93.609,270.614z"/>
	</g>
</g>
<g>
</g>
<g>
</g>
<g>
</g>
<g>
</g>
<g>
</g>
<g>
</g>
<g>
</g>
<g>
</g>
<g>
</g>
<g>
</g>
<g>
</g>
<g>
</g>
<g>
</g>
<g>
</g>
<g>
</g>
</svg>
